inDegrees=no
num_controls=7
num_derivatives=13
num_iterations=123
num_multipliers=7
num_parameters=0
num_slacks=7
num_states=26
objective=0.447641
objective_accelerations=0.049977
objective_balance=0.007588
objective_effort=0.037115
objective_height=0.347976
objective_ligament=0.004985
solver_duration=1839.511039
status=Solve_Succeeded
success=true
DataType=double
version=3
OpenSimVersion=4.5
endheader
time	/jointset/ground_pelvis/pelvis_tilt/value	/jointset/ground_pelvis/pelvis_tx/value	/jointset/ground_pelvis/pelvis_ty/value	/jointset/hip_l/hip_flexion_l/value	/jointset/hip_l/hip_adduction_l/value	/jointset/hip_l/hip_rotation_l/value	/jointset/back/lumbar_extension/value	/jointset/patellofemoral_l/patellar_flexion_l/value	/jointset/knee_l/knee_flexion_l/value	/jointset/knee_l/knee_adduction_l/value	/jointset/knee_l/knee_rotation_l/value	/jointset/ankle_l/ankle_angle_l/value	/jointset/subtalar_l/subtalar_angle_l/value	/jointset/ground_pelvis/pelvis_tilt/speed	/jointset/ground_pelvis/pelvis_tx/speed	/jointset/ground_pelvis/pelvis_ty/speed	/jointset/hip_l/hip_flexion_l/speed	/jointset/hip_l/hip_adduction_l/speed	/jointset/hip_l/hip_rotation_l/speed	/jointset/back/lumbar_extension/speed	/jointset/patellofemoral_l/patellar_flexion_l/speed	/jointset/knee_l/knee_flexion_l/speed	/jointset/knee_l/knee_adduction_l/speed	/jointset/knee_l/knee_rotation_l/speed	/jointset/ankle_l/ankle_angle_l/speed	/jointset/subtalar_l/subtalar_angle_l/speed	/forceset/tau_hip_flexion_l	/forceset/tau_hip_adduction_l	/forceset/tau_hip_rotation_l	/forceset/tau_knee_flexion_l	/forceset/tau_ankle_angle_l	/forceset/tau_subtalar_angle_l	/forceset/tau_lumbar_extension	lambda_cid13_p0	lambda_cid13_p1	lambda_cid13_p2	lambda_cid13_p3	lambda_cid13_p4	lambda_cid13_p5	lambda_cid14_p0	/jointset/ground_pelvis/pelvis_tilt/accel	/jointset/ground_pelvis/pelvis_tx/accel	/jointset/ground_pelvis/pelvis_ty/accel	/jointset/hip_l/hip_flexion_l/accel	/jointset/hip_l/hip_adduction_l/accel	/jointset/hip_l/hip_rotation_l/accel	/jointset/back/lumbar_extension/accel	/jointset/patellofemoral_l/patellar_flexion_l/accel	/jointset/knee_l/knee_flexion_l/accel	/jointset/knee_l/knee_adduction_l/accel	/jointset/knee_l/knee_rotation_l/accel	/jointset/ankle_l/ankle_angle_l/accel	/jointset/subtalar_l/subtalar_angle_l/accel	gamma_cid13_p0	gamma_cid13_p1	gamma_cid13_p2	gamma_cid13_p3	gamma_cid13_p4	gamma_cid13_p5	gamma_cid14_p0
1.5	-0.4553634720626143	-0.07812062329575109	0.7586875579797099	1.287419718597963	-0.3102398374851468	-0.04268733178857944	-0.3462281218404084	0.6996480699232512	0.6996480699233052	-0.1734941287686649	0.174392605684636	0.03386917256511385	-0.05033355886794573	0.7481824757273614	0.2690719621445249	0.5039182662505032	-2.388949927566036	0.03006864328056514	-0.6178493467839777	0.5624499343069715	-1.775093812341348	-1.775093812341411	0.005053120652424745	-0.001916790240222045	-0.2289916668111101	0.005828308458974731	-0.2539518998793689	0.01399261197390257	-0.02121229876635574	-0.2018916964784267	0.1431870268583962	0.04640384867507162	0.2276162491309869	7.148714237392342	-24.02852928610339	6.425224835064641	-5.862396121448876	-609.8771062900289	-61.92646928216137	-27.68222667148273	0.6601336595877213	0.6981558054533262	-0.307050170788395	-1.553661696654546	0.6000215183588179	-0.2921420236784454	1.754439297166262	-1.101732421062154	-1.101732421062099	0.03574747249378471	-0.03060389407095496	-0.1508514876487293	0.577026683223296	2.9265497698439e-07	6.958665767307522e-07	-1.460104463377262e-06	-1.008547912590949e-07	3.674974888309747e-07	-9.319553918393177e-08	3.125691800474149e-07
1.51	-0.4478489659180612	-0.07539517996359678	0.7637104444432425	1.263454631165316	-0.309910274876962	-0.04887965796271497	-0.3405172275540396	0.6818442153862573	0.6818442153862093	-0.1734441784797635	0.174372933970787	0.03157185764601798	-0.05024763640889477	0.7546171231333799	0.2759893735791681	0.5005606475840791	-2.403750110400731	0.03584848198494508	-0.6205140351349498	0.5796662582232895	-1.785434848557902	-1.785434848558008	0.004912303957606565	-0.002033502085782473	-0.2304197576770445	0.01136224156364044	-0.2459515257530802	0.01333046583453595	-0.02106716626479441	-0.2004548796163825	0.143003171163029	0.04584909888680236	0.2214433439251249	7.332209319434858	-23.92379306751396	6.527391749532475	-5.833670717506649	-605.4106127450561	-62.25917816748313	-28.71330732582849	0.6199121912847705	0.6844434596878092	-0.3648164925735801	-1.395547248305089	0.5676372942072478	-0.2381085182863625	1.695829227329303	-0.9640029610855582	-0.9640029610919502	-0.04255368216907068	-0.00438177730931792	-0.1310453540785646	0.5424238509417397	2.077084308084824e-07	9.064210625506645e-07	-1.054345934082383e-06	-3.754883247220166e-09	3.16523303892763e-07	-1.950056894227924e-08	2.736297684931192e-07
1.52	-0.440273156917413	-0.07260138058765245	0.7686968149645099	1.239351071770037	-0.309522779432187	-0.05509552627585244	-0.3346360499708144	0.6639442077392737	0.6639442077391176	-0.1733963478461592	0.1743516597489728	0.02926181032466057	-0.05010620517342643	0.7604430469464311	0.2827431709025272	0.4966150777974888	-2.41664432009255	0.04165521059850793	-0.6225577745851107	0.5965065936781967	-1.794324434339794	-1.794324434339942	0.004629189594813674	-0.002237291831771801	-0.231538147263489	0.01693006374244872	-0.2379511516267807	0.01266831969518369	-0.02092203376331046	-0.1990180627543242	0.1428193154676664	0.04529434909854671	0.2152704387192689	7.508333463030137	-23.82051127926364	6.632926404089386	-5.796362950742941	-601.0662119588951	-62.65791276917452	-29.72777514448843	0.538388940994257	0.6654329831965261	-0.4246403948216221	-1.172467068079022	0.6053995001954021	-0.1679522435161882	1.679241604884069	-0.8114423341295939	-0.811442334129621	0.007287938898834423	-0.04801947415672009	-0.08891123175070201	0.5838044980518076	1.405855528411255e-07	1.07865392348856e-06	-7.411581946777001e-07	6.919605598253112e-08	2.814467968452011e-07	3.849718536638244e-08	2.433527394831798e-07
1.53	-0.432642154295187	-0.06974093753189868	0.7736408281646954	1.215128222150199	-0.3090769823578352	-0.06132961310899469	-0.3285885109855495	0.6459628094039427	0.6459628094038946	-0.1733513089284304	0.1743285325102201	0.02694221760511584	-0.04990880030185017	0.7656511303717835	0.2893097350382325	0.4920928216595744	-2.42759281362573	0.04750834200973426	-0.6241661560140492	0.6129236424771167	-1.801699096066198	-1.801699096066345	0.004369971835389523	-0.002397986997374256	-0.2323249327839732	0.02255732750693796	-0.2298869353843291	0.01185432557852458	-0.02079650438869683	-0.1975396701935229	0.1425841507547804	0.04461746408437567	0.2089930714130696	7.664480918834886	-23.6615420093109	6.730557743775179	-5.705663304683569	-596.7107789577976	-62.97183147380836	-30.72120212143218	0.4960824001961031	0.6469407086936046	-0.4801786050609566	-1.00610145227006	0.5757784295298711	-0.1430468118789486	1.611302382739518	-0.6620997924148382	-0.6620997924146008	-0.04361458550135124	-0.001424493298110425	-0.0652290631761714	0.5529963840742584	9.240032234535328e-08	1.210170057989313e-06	-5.263269195313498e-07	1.164887158812765e-07	2.632615725564544e-07	7.981664774624153e-08	2.222794919266188e-07
1.54	-0.4249622579673299	-0.06681589431880067	0.7785367867271447	1.190805875403762	-0.3085725522757828	-0.067576936900285	-0.3223791283392268	0.6279153401112418	0.6279153401113056	-0.1733090797787178	0.1743035323287091	0.02461642366017033	-0.04965496097894365	0.7702217880727515	0.2956632023713809	0.4870041502502737	-2.436543745412208	0.05338181213870628	-0.625205166214839	0.6288753258897785	-1.807538625813365	-1.80753862581351	0.004067235990433613	-0.002611880384421955	-0.2327783923436128	0.02821695400849916	-0.2218227191418774	0.0110403314618658	-0.02067097501404114	-0.1960612776327275	0.1423489860418942	0.04394057907020519	0.2027157041068703	7.812381974782722	-23.50326186969449	6.830735477515819	-5.59690687557234	-592.4859991845176	-63.34300099386494	-31.68920431588467	0.410903796117384	0.6228136226851706	-0.537923449098876	-0.7729547187383626	0.6094672437445325	-0.05407799788644101	1.586168527632389	-0.5044159382823333	-0.504415938282329	-0.001415678207522798	-0.05865911844575923	-0.02224603958176614	0.5902770454661994	6.175348037755337e-08	1.31164763820219e-06	-4.013957916852823e-07	1.469500616426475e-07	2.567429464105408e-07	1.137387490899445e-07	2.113525561623488e-07
1.55	-0.4172398722556374	-0.06382844710802267	0.7833790831543985	1.16640404984408	-0.3080093312146912	-0.07383203950764838	-0.3160127585385393	0.6098172280207939	0.609817228020778	-0.1732699909725278	0.1742763018557783	0.02228778395572886	-0.04934439816997131	0.7741415849885944	0.3017831771083092	0.4813654086668431	-2.443474055270884	0.05926352896409098	-0.6257233132582798	0.6443041643390784	-1.811817824334516	-1.811817824334514	0.003750651364881436	-0.002843145423508698	-0.2328910059178697	0.03389984562297221	-0.2136331049195929	0.01004344082119041	-0.02059673344547433	-0.1947131606072463	0.1423454162011386	0.04309201115002763	0.1963024475828501	8.026892042653728	-23.28383756211668	6.923169640542602	-5.511800927147973	-588.3076109359016	-63.62739584647158	-32.62726221111396	0.365465775441456	0.6001628314671399	-0.590254990492732	-0.6009547962761533	0.5775547821782033	-0.03665288194379494	1.507071017277389	-0.3498191257927754	-0.3498191257707344	-0.04653255660101601	-0.006556774865281681	0.003025946833428356	0.5577514491052407	5.1313912148503e-08	1.378515579779039e-06	-3.800452683373607e-07	1.580188063326968e-07	2.636662702987603e-07	1.391378040224248e-07	2.121159361587612e-07
1.56	-0.4094816989475619	-0.06078108546342129	0.7881623110703125	1.141943344050442	-0.3073872868092973	-0.080089517550321	-0.3094949344506192	0.5916842944817822	0.5916842944816882	-0.173234018552966	0.1742465194168114	0.0199597771081807	-0.04897691519892074	0.777379307349387	0.3076460891360556	0.4751904479823084	-2.448319792203318	0.06514648099918786	-0.6256802532765566	0.6591661833363219	-1.814502915526118	-1.81450291552597	0.003443958664451871	-0.003122273591602097	-0.2326518209648829	0.03960098642414132	-0.2054434906973099	0.009046550180511589	-0.02052249187689958	-0.1933650435817674	0.1423418463603815	0.04224344322984619	0.1898891910588298	8.232562545111618	-23.06476130143579	7.017824844359657	-5.403686456527258	-584.2661241901545	-63.96938334333576	-33.5309429314382	0.2744888851073303	0.5714010808488078	-0.6451672693196818	-0.3560401334900161	0.6097142856869653	0.05816340714634051	1.472804637221101	-0.1855944723725359	-0.1855944723725497	0.0005627068169951344	-0.06823174424708323	0.04811366586700009	0.5939268828054121	4.048429319769507e-08	1.439518924916694e-06	-3.594628102707646e-07	1.679575797590639e-07	2.702063311742966e-07	1.640728154123679e-07	2.120596766913469e-07
1.57	-0.4016945932685008	-0.05767646038053297	0.792881163658722	1.117444657866325	-0.3067065421668128	-0.08634397118124393	-0.3028315353547553	0.5735325430024711	0.5735325430025139	-0.1732011495833704	0.1742139320905811	0.01763588245204694	-0.04855246547495173	0.779921299430351	0.3132271341874978	0.4684952790334914	-2.451055978615913	0.0709895562009394	-0.6251210638131279	0.6734002153917621	-1.815572262224822	-1.815572262224826	0.003118589952911646	-0.003394500363528652	-0.2320717215137415	0.04527888102927277	-0.197166648286505	0.007842522751936103	-0.02050030060378701	-0.1921017785717779	0.1424807845121244	0.04126195168710584	0.1833653320069666	8.47557711261827	-22.79560456388032	7.105763124853369	-5.285739408369987	-580.2881583858778	-64.24468897058789	-34.3957701215643	0.2259849525900604	0.5437235078051434	-0.6943543561735408	-0.1781739332715565	0.5695095134074558	0.0684327597967007	1.381689422991871	-0.02637912324439218	-0.02637912326734096	-0.0505269692725895	-0.006473403293049202	0.07127909193231241	0.5530083901946879	2.91671108446902e-08	1.493191524505359e-06	-3.398404338058252e-07	1.764838891058281e-07	2.76267313283979e-07	1.884277723741398e-07	2.109788678941491e-07
